<svg version="1.1" viewBox="0 0 20 20" xmlns="http://www.w3.org/2000/svg"><path d="m10 0c-5.5225 0-10 4.4775-10 10s4.4775 10 10 10 10-4.4775 10-10-4.4775-10-10-10zm0 18.75c-4.8242 0-8.75-3.9258-8.75-8.75s3.9258-8.75 8.75-8.75c4.8242 0 8.75 3.9258 8.75 8.75s-3.9258 8.75-8.75 8.75z" fill="#51586e" stroke-width=".15625"/><path d="m14.419 12.651-3.1689-3.1689v-3.2325c0-.69094-.55906-1.25-1.25-1.25-.69094 0-1.25.55906-1.25 1.25v4.2677l3.9014 3.9014c.48828.48953 1.2794.48953 1.7677 0 .48938-.48843.48938-1.2797-.000156-1.7676z" fill="#51586e" stroke-width=".15625"/></svg>