<svg version="1.1" viewBox="0 0 512 512" xmlns="http://www.w3.org/2000/svg"><g><path d="m0 0h512v512h-512z" fill="#203060" style="paint-order:markers stroke fill"/></g><g><path d="m398.67 103.71-58.717 78.428c5.68-6.0408 12.038-10.81 19.098-14.258 9.0195-4.5627 18.491-6.8418 28.412-6.8418 10.523 0 19.841 2.2791 27.959 6.8418 8.4182 4.2585 16.386 9.8867 23.902 16.883l35.176-42.889c-9.9215-10.342-22.397-19.315-37.43-26.92-11.629-6.1179-24.433-9.8589-38.4-11.244zm-238.74.11133v304.27h68.6v-81.666l35.467-46.668 74.199 128.33h75.133l-108.73-182.93 91.934-121.33h-75.6l-90.533 124.6h-1.8672v-124.6zm-2.0156 197.29c-.35792 18.033-3.5591 30.652-9.6055 37.85-6.1208 7.345-15.301 11.018-27.543 11.018-7.651 0-15.149-2.4471-22.494-7.3438-7.345-4.8966-13.771-12.395-19.279-22.494l-45.906 33.971c10.405 18.362 23.259 31.98 38.561 40.855 15.608 8.8752 34.889 13.312 57.842 13.312 10.381 0 19.856-1.0879 28.426-3.2617zm285.83 24.859c-7.2156 7.9087-15.633 14.599-25.254 20.074-9.3202 5.1711-19.993 7.7578-32.02 7.7578-1.1452 0-2.2718-.0352-3.3926-.082l32.262 54.426h.0156c24.784-5.9696 45.974-19.366 63.564-40.201z" fill="#fff"/></g></svg>