<svg version="1.1" viewBox="0 0 512 512" xmlns="http://www.w3.org/2000/svg"><g><path d="m0 0h512v512h-512z" fill="#203060" style="paint-order:markers stroke fill"/></g><g><path d="m342.19 164-35.473 47.381c3.4314-3.6494 7.2724-6.5304 11.537-8.6136 5.449-2.7565 11.171-4.1333 17.165-4.1333 6.3571 0 11.987 1.3769 16.891 4.1333 5.0857 2.5727 9.8993 5.9728 14.44 10.199l21.251-25.91c-5.9939-6.248-13.531-11.669-22.612-16.263-7.0252-3.696-14.761-5.956-23.199-6.7929zm-144.23.0673v183.82h41.443v-49.337l21.427-28.194 44.826 77.53h45.39l-65.688-110.52 55.54-73.301h-45.672l-54.694 75.276h-1.128v-75.276zm-1.2177 119.19c-.21623 10.894-2.1501 18.518-5.803 22.866-3.6978 4.4373-9.244 6.656-16.64 6.656-4.6222 0-9.1521-1.4784-13.589-4.4366-4.4373-2.9582-8.3192-7.4881-11.647-13.589l-27.733 20.523c6.2862 11.093 14.051 19.32 23.296 24.682 9.4293 5.3618 21.077 8.0425 34.944 8.0425 6.2718 0 11.996-.65723 17.173-1.9705zm172.68 15.018c-4.3592 4.7779-9.4444 8.8197-15.257 12.127-5.6306 3.124-12.079 4.6867-19.344 4.6867-.69186 0-1.3724-.0213-2.0496-.0495l19.49 32.88h.009c14.973-3.6064 27.774-11.7 38.401-24.287z" fill="#fff"/></g></svg>