<svg version="1.1" viewBox="0 0 16 16" xmlns="http://www.w3.org/2000/svg"><g transform="translate(0,-496)"><path d="m12.458 499.24-1.8349 2.4509c.1775-.18878.37618-.33781.5968-.44556.28186-.14259.57783-.21381.88788-.21381.32884 0 .62004.0712.87372.21381.26307.13308.51206.30896.74695.52759l1.0992-1.3403c-.31005-.3232-.69991-.60361-1.1697-.84125-.3634-.19119-.76353-.30809-1.2-.35138zm-7.4606.003v9.5084h2.1437v-2.5521l1.1083-1.4584 2.3187 4.0104h2.3479l-3.3979-5.7167 2.8729-3.7917h-2.3625l-2.8292 3.8938h-.05835v-3.8938zm-.062988 6.1653c-.011185.56354-.11122.95786-.30017 1.1828-.19128.22953-.47817.3443-.86072.3443-.23909 0-.47341-.0765-.70294-.22949-.22953-.15302-.43033-.38734-.60248-.70294l-1.4346 1.0616c.32517.57383.72683.99939 1.205 1.2767.48775.27734 1.0903.41601 1.8076.41601.32442 0 .62049-.034.88831-.10193zm8.9322.77686c-.22549.24714-.48853.45622-.78918.62732-.29126.16159-.6248.24243-1.0006.24243-.03579 0-.07099-.001-.10602-.003l1.0082 1.7008h.000488c.7745-.18655 1.4367-.60519 1.9864-1.2563z"/></g></svg>