<svg xmlns="http://www.w3.org/2000/svg" width="100" viewBox="0 0 100 100" height="100"><path d="M50 0C22.387 0 0 22.387 0 50c0 27.612 22.387 50 50 50 27.612 0 50-22.388 50-50 0-27.613-22.388-50-50-50zm0 93.75C25.879 93.75 6.25 74.121 6.25 50S25.879 6.25 50 6.25 93.75 25.879 93.75 50 74.121 93.75 50 93.75z" fill="#51586e"/><path d="M72.095 63.257L56.25 47.413V31.25A6.246 6.246 0 0050 25a6.246 6.246 0 00-6.25 6.25v21.338l19.507 19.507a6.237 6.237 0 008.838 0 6.238 6.238 0 000-8.838z" fill="#51586e"/></svg>