<svg xmlns="http://www.w3.org/2000/svg" xml:space="preserve" width="100" height="100"><path d="M64 0C28.656 0 0 28.656 0 64s28.656 64 64 64 64-28.656 64-64S99.344 0 64 0m0 120C33.125 120 8 94.875 8 64S33.125 8 64 8s56 25.125 56 56-25.125 56-56 56" style="fill:#51586e;fill-opacity:1" transform="scale(.78125)"/><path d="M72.095 63.257 56.25 47.413V31.25A6.246 6.246 0 0 0 50 25a6.246 6.246 0 0 0-6.25 6.25v21.338l19.507 19.507a6.237 6.237 0 0 0 8.838 0 6.24 6.24 0 0 0 0-8.838" style="fill:#51586e;fill-opacity:1;stroke-width:.78125"/></svg>