<svg viewBox="0 0 44 44" xmlns="http://www.w3.org/2000/svg"><path d="M32.674 11.138l-4.393 5.594c.425-.431.9-.771 1.429-1.017a4.834 4.834 0 012.126-.488c.787 0 1.484.162 2.091.488.63.304 1.226.705 1.789 1.204l2.631-3.059c-.742-.738-1.675-1.378-2.8-1.92a8.036 8.036 0 00-2.873-.802zm-17.862.008v21.701h5.133v-5.825l2.653-3.328 5.552 9.153h5.62L25.637 19.8l6.878-8.654h-5.656l-6.773 8.887h-.14v-8.887zm-.15 14.071c-.028 1.286-.267 2.186-.72 2.7-.457.523-1.144.785-2.06.785-.573 0-1.134-.174-1.683-.523-.55-.35-1.03-.884-1.443-1.605l-3.434 2.423c.778 1.31 1.74 2.281 2.885 2.914 1.168.633 2.61.95 4.327.95.777 0 1.486-.078 2.127-.233zm21.385 1.773a7.629 7.629 0 01-1.89 1.432c-.697.369-1.495.553-2.395.553-.086 0-.17-.003-.254-.006l2.414 3.882h.001c1.855-.426 3.44-1.381 4.756-2.867z"/></svg>