<svg viewBox="0 0 512 512" xmlns="http://www.w3.org/2000/svg"><path d="M0 0h512v512H0z" fill="#203060"/><path d="M380.21 129.61l-51.12 65.09c4.945-5.013 10.48-8.972 16.627-11.833 7.853-3.787 16.098-5.678 24.736-5.678 9.161 0 17.274 1.891 24.341 5.678 7.329 3.534 14.266 8.205 20.809 14.012l30.625-35.595c-8.638-8.583-19.499-16.03-32.587-22.342-10.124-5.077-21.272-8.182-33.431-9.332zm-207.85.092v252.52h59.724v-67.778l30.878-38.732 64.598 106.51h65.412l-94.662-151.82 80.039-100.7h-65.818l-78.819 103.41h-1.626v-103.41zm-1.755 163.74c-.311 14.966-3.098 25.44-8.362 31.413-5.33 6.096-13.321 9.145-23.98 9.145-6.66 0-13.188-2.031-19.583-6.095-6.395-4.064-11.99-10.287-16.785-18.67L61.929 337.43c9.058 15.239 20.25 26.54 33.572 33.907 13.588 7.366 30.375 11.048 50.358 11.048 9.037 0 17.287-.903 24.748-2.707zm248.85 20.631c-6.282 6.564-13.61 12.116-21.986 16.66-8.114 4.292-17.406 6.439-27.877 6.439-.997 0-1.978-.03-2.953-.068l28.088 45.17h.013c21.577-4.955 40.025-16.073 55.34-33.364z" fill="#fff"/></svg>