<svg xmlns="http://www.w3.org/2000/svg" height="100" viewBox="0 0 100 100" width="100"><path fill="#e66045" paint-order="markers stroke fill" d="M0 0h100v100H0z"/><path d="M71.071 16.75H28.93c-4.655 0-8.429 3.722-8.429 8.313v49.875c0 4.59 3.774 8.312 8.429 8.312 8.102-.04 2.347-3.7 20.826-3.7 1.36 0 2.388-.019 7.736-.076 11.073-.118 18.293-10.661 18.242-24.791-.019-5.194-.023-5.559-.023-6.441 0-18.104 3.76-12.815 3.79-23.18-.029-4.59-3.774-8.312-8.429-8.312z" clip-rule="evenodd" fill="#fff" fill-rule="evenodd"/><path fill="#c4c8d4" paint-order="markers stroke fill" d="M73.568 56.432l7.177 7.177-15.49 15.49-7.177-7.177z"/><path d="M71.429 16.25H28.57c-4.733 0-8.571 3.778-8.571 8.437v50.625c0 4.66 3.838 8.438 8.571 8.438h23.572v-4.219H28.57c-2.36 0-4.285-1.89-4.285-4.219V24.687c0-2.327 1.925-4.218 4.285-4.218h42.86c2.364 0 4.285 1.89 4.285 4.218V49.49L80 45.27V24.687c0-4.66-3.838-8.437-8.571-8.437z" clip-rule="evenodd" fill-rule="evenodd" fill="#51586e"/><path d="M86.264 54.219l-2.983-2.983A4.204 4.204 0 0080.3 50c-1.08 0-2.16.412-2.983 1.236L59.205 69.347c-.824.824-3.345 4.01-3.346 5.09L53.75 83.75l9.31-2.11s4.27-2.52 5.093-3.345l18.111-18.11a4.217 4.217 0 000-5.966zm-19.598 22.58c-.24.227-1.065.785-2.075 1.428l-5.465-5.465c.56-.768 1.185-1.54 1.57-1.923l13.637-13.637 5.966 5.966z" fill="#51586e"/><path d="M66.406 33.125h-33.75v-4.219h33.75zm0 8.437h-33.75v-4.218h33.75zm0 8.438h-33.75v-4.219h33.75zm-16.875 8.437H32.656V54.22h16.875z" fill="#c4c8d4"/></svg>