<svg viewBox="0 0 512 512" xmlns="http://www.w3.org/2000/svg"><path d="M0 0h512v512H0z" fill="#203060"/><path d="M354.31 151.06l-40.46 54.043c3.914-4.162 8.295-7.449 13.159-9.825 6.215-3.144 12.742-4.714 19.578-4.714 7.25 0 13.672 1.57 19.266 4.714 5.8 2.935 11.291 6.813 16.47 11.633l24.239-29.553c-6.837-7.126-15.433-13.31-25.791-18.55-8.013-4.215-16.836-6.793-26.461-7.748zm-164.51.077v209.67h47.27v-56.274l24.44-32.158 51.129 88.43h51.772l-74.924-126.06 63.349-83.606h-52.093l-62.384 85.86h-1.287v-85.86zm-1.389 135.95c-.247 12.426-2.452 21.122-6.619 26.08-4.217 5.062-10.544 7.593-18.98 7.593-5.272 0-10.439-1.687-15.5-5.06-5.061-3.375-9.489-8.542-13.285-15.5l-31.632 23.408c7.17 12.653 16.027 22.036 26.571 28.152 10.755 6.116 24.04 9.173 39.857 9.173 7.154 0 13.683-.75 19.588-2.247zm196.96 17.13c-4.972 5.45-10.772 10.06-17.402 13.832-6.422 3.563-13.777 5.345-22.064 5.345a56.32 56.32 0 01-2.338-.056l22.23 37.503h.01c17.079-4.114 31.68-13.345 43.8-27.702z" fill="#fff"/></svg>