<svg xmlns="http://www.w3.org/2000/svg" xml:space="preserve" width="100" height="100"><g style="display:inline"><path d="M232.221-600.573h75v75h-75z" style="opacity:1;fill:#000;fill-opacity:1;stroke:none;stroke-width:28.19672585;stroke-linecap:square;stroke-linejoin:miter;stroke-miterlimit:4;stroke-dasharray:none;stroke-opacity:1;paint-order:markers stroke fill" transform="matrix(1.33333 0 0 1.33333 -309.628 800.765)"/></g><g style="display:inline"><path d="M-5.148-31.747c.815-.149 1.112.354 1.112.786 0 .386-.014 1.411-.022 2.77-4.531-.984-5.487 2.184-5.487 2.184-.741 1.881-1.809 2.382-1.809 2.382-1.479 1.011.112.991.112.991 1.635-.116 2.495-1.679 2.495-1.679 1.453-2.489 3.813-1.77 4.741-1.354.148 1.053.568 1.771 1.034 2.178-3.617.411-7.42 1.809-7.42 8.051 0 1.778.635 3.232 1.677 4.371-.168.412-.727 2.068.159 4.311 0 0 1.368.438 4.48-1.67 1.299.361 2.693.542 4.078.548a15.6 15.6 0 0 0 4.078-.548c3.11 2.108 4.475 1.67 4.475 1.67.889-2.243.33-3.899.162-4.311 1.044-1.139 1.675-2.593 1.675-4.371 0-6.258-3.809-7.635-7.438-8.038.585-.503 1.106-1.497 1.106-3.017 0-2.177-.02-3.934-.02-4.468 0-.436.293-.943 1.12-.784" style="fill:#fff;fill-opacity:1;fill-rule:evenodd;stroke:none" transform="matrix(3.06944 0 0 -3.14718 49.995 -.001)"/></g></svg>