<svg height="128" viewBox="0 0 128 128" width="128" xmlns="http://www.w3.org/2000/svg"><circle cx="64" cy="64" r="64" fill="#c6c62a"/><path fill="#fff" d="M22.438 21.625h83.291v80.511H22.438z"/><path d="M59.375 46.125h-22.5v22.5h22.5zm-22.5 33.75h56.25V74.25h-56.25zm0 11.25h56.25V85.5h-56.25zm28.125-45v5.625h28.126v-5.625zM65 63h28.126v-5.625H65z" fill="#b0bec5"/><path d="M104.38 18H25.63a5.632 5.632 0 00-5.625 5.625v78.75c0 3.1 2.524 5.625 5.625 5.625h78.75c3.1 0 5.625-2.524 5.625-5.625v-78.75c0-3.1-2.524-5.625-5.625-5.625zm-14.063 5.625a2.81 2.81 0 012.813 2.813 2.81 2.81 0 01-2.813 2.812 2.81 2.81 0 01-2.813-2.813 2.81 2.81 0 012.813-2.812zm-50.625 0h39.375a2.81 2.81 0 012.813 2.813 2.81 2.81 0 01-2.813 2.812H39.692a2.81 2.81 0 01-2.813-2.813 2.81 2.81 0 012.813-2.812zm-11.25 0a2.81 2.81 0 012.812 2.813 2.81 2.81 0 01-2.812 2.812 2.81 2.81 0 01-2.813-2.813 2.81 2.81 0 012.813-2.812zM104.38 96.75c0 3.1-2.524 5.625-5.625 5.625h-67.5a5.632 5.632 0 01-5.625-5.625V40.5c0-3.1 2.524-5.625 5.625-5.625h67.5c3.1 0 5.625 2.524 5.625 5.625zm-2.813-67.5a2.81 2.81 0 01-2.812-2.813 2.81 2.81 0 012.813-2.812 2.81 2.81 0 012.812 2.813 2.81 2.81 0 01-2.813 2.812z" fill="#546e7a"/></svg>