<svg xmlns="http://www.w3.org/2000/svg" viewBox="0 0 512 512"><path fill="#203060" d="M0 0h512v512H0z"/><path fill="#fff" d="m354.31 151.06-40.46 54.043c3.914-4.162 8.295-7.449 13.159-9.825q9.323-4.715 19.578-4.714 10.875-.001 19.266 4.714 8.7 4.403 16.47 11.633l24.239-29.553q-10.255-10.69-25.791-18.55c-8.013-4.215-16.836-6.793-26.461-7.748zm-164.51.077v209.67h47.27v-56.274l24.44-32.158 51.129 88.43h51.772l-74.924-126.06 63.349-83.606h-52.093l-62.384 85.86h-1.287v-85.86zm-1.389 135.95c-.247 12.426-2.452 21.122-6.619 26.08q-6.326 7.593-18.98 7.593-7.908 0-15.5-5.06-7.591-5.063-13.285-15.5l-31.632 23.408q10.755 18.979 26.571 28.152 16.132 9.173 39.857 9.173 10.73 0 19.588-2.247zm196.96 17.13q-7.457 8.175-17.402 13.832-9.633 5.345-22.064 5.345c-.789 0-1.565-.024-2.338-.056l22.23 37.503h.01c17.079-4.114 31.68-13.345 43.8-27.702z"/></svg>