<svg xmlns="http://www.w3.org/2000/svg" xml:space="preserve" width="100" height="100"><g style="display:inline"><path d="M0 0h100v100H0z" style="opacity:1;fill:#ccbf2f;fill-opacity:1;stroke:none;stroke-width:52.98088074;stroke-linecap:square;stroke-linejoin:miter;stroke-miterlimit:4;stroke-dasharray:none;stroke-opacity:1;paint-order:markers stroke fill"/></g><g style="display:inline"><path d="M56 40H24v32h32ZM24 88h80v-8H24Zm0 16h80v-8H24Zm40-64v8h40v-8zm0 24h40v-8H64Z" style="fill:#c4c8d4;fill-opacity:1" transform="matrix(.4688 0 0 .4688 18.032 21.33)"/><path d="M38.812 59.113h-35a2.503 2.503 0 0 0-2.5 2.5v35c0 1.378 1.122 2.5 2.5 2.5h35c1.378 0 2.5-1.122 2.5-2.5v-35c0-1.378-1.122-2.5-2.5-2.5" style="fill:#fff;fill-opacity:1;stroke-width:.3125" transform="matrix(1.5 0 0 1.5 18.032 -68.67)"/></g><g style="display:inline"><path d="M56 40H24v32h32ZM24 88h80v-8H24Zm0 16h80v-8H24Zm40-64v8h40v-8zm0 24h40v-8H64Z" style="fill:#c4c8d4;fill-opacity:1" transform="matrix(.4688 0 0 .4688 20 20)"/><path d="M37.5 60h-35A2.503 2.503 0 0 0 0 62.5v35c0 1.378 1.122 2.5 2.5 2.5h35c1.378 0 2.5-1.122 2.5-2.5v-35c0-1.378-1.122-2.5-2.5-2.5m-6.25 2.5a1.25 1.25 0 1 1 .001 2.499 1.25 1.25 0 0 1-.001-2.499m-22.5 0h17.5a1.25 1.25 0 1 1 0 2.5H8.75a1.25 1.25 0 1 1 0-2.5m-5 0a1.25 1.25 0 1 1 .001 2.499A1.25 1.25 0 0 1 3.75 62.5M37.5 95c0 1.378-1.122 2.5-2.5 2.5H5A2.503 2.503 0 0 1 2.5 95V70c0-1.378 1.122-2.5 2.5-2.5h30c1.378 0 2.5 1.122 2.5 2.5zm-1.25-30a1.25 1.25 0 1 1-.001-2.499A1.25 1.25 0 0 1 36.25 65" style="fill:#51586e;fill-opacity:1;stroke-width:.3125" transform="matrix(1.5 0 0 1.5 20 -70)"/></g></svg>