<svg viewBox="0 0 128 128" xmlns="http://www.w3.org/2000/svg"><circle cx="200" cy="200" r="200" fill="#fff" transform="scale(.32)"/><path d="M52.288 97.76c28.384 0 43.904-23.52 43.904-43.904 0-.672 0-1.344-.032-1.984a31.613 31.613 0 007.712-8 31.319 31.319 0 01-8.864 2.432 15.422 15.422 0 006.784-8.544A31.247 31.247 0 0192 41.504a15.356 15.356 0 00-11.264-4.864c-8.512 0-15.424 6.912-15.424 15.424 0 1.216.128 2.4.416 3.52-12.832-.64-24.192-6.784-31.808-16.128a15.479 15.479 0 00-2.08 7.744c0 5.344 2.72 10.08 6.88 12.832a15.158 15.158 0 01-6.976-1.92v.192c0 7.488 5.312 13.696 12.384 15.136-1.28.352-2.656.544-4.064.544-.992 0-1.952-.096-2.912-.288a15.407 15.407 0 0014.4 10.72 31.018 31.018 0 01-19.168 6.592c-1.248 0-2.464-.064-3.68-.224 6.752 4.416 14.88 6.976 23.584 6.976" fill="#1da1f2"/></svg>