<svg xmlns="http://www.w3.org/2000/svg" xml:space="preserve" width="100" height="100"><g style="display:inline"><path d="M0 0h100v100H0z" style="opacity:1;fill:#e66045;fill-opacity:1;stroke:none;stroke-width:39.34760284;stroke-linecap:square;stroke-linejoin:miter;stroke-miterlimit:4;stroke-dasharray:none;stroke-opacity:1;paint-order:markers stroke fill"/></g><g style="display:inline"><path d="M71.071 13H28.93c-4.655 0-8.429 3.722-8.429 8.313v49.875c0 4.59 3.774 8.312 8.429 8.312 8.102-.04 2.347-3.7 20.826-3.7 1.36 0 2.388-.019 7.736-.076 11.073-.118 18.293-10.661 18.242-24.791-.019-5.194-.023-5.559-.023-6.441 0-18.104 3.76-12.815 3.79-23.18-.029-4.59-3.774-8.312-8.429-8.312" style="clip-rule:evenodd;display:inline;fill:#fff;fill-opacity:1;fill-rule:evenodd;stroke-width:.52314591" transform="translate(0 3.75)"/><path d="M89.272-14.769h10.15V7.138h-10.15z" style="display:inline;opacity:1;fill:#c4c8d4;fill-opacity:1;stroke:none;stroke-width:23.44338036;stroke-linecap:square;stroke-linejoin:miter;stroke-miterlimit:4;stroke-dasharray:none;stroke-opacity:1;paint-order:markers stroke fill" transform="rotate(45 -4.527 1.875)"/><g style="fill:#51586e;fill-opacity:1"><path d="M96 0H16C7.164 0 0 7.164 0 16v96c0 8.836 7.164 16 16 16h44v-8H16c-4.406 0-8-3.586-8-8V16c0-4.414 3.594-8 8-8h80c4.414 0 8 3.586 8 8v47.031l8-8V16c0-8.836-7.164-16-16-16" style="clip-rule:evenodd;fill:#51586e;fill-opacity:1;fill-rule:evenodd" transform="matrix(.53571 0 0 .52734 20 16.25)"/></g><path d="m58.901 73.75-2.65-2.651A3.74 3.74 0 0 0 53.598 70c-.96 0-1.92.366-2.651 1.099l-16.1 16.099c-.732.732-2.972 3.564-2.973 4.524L30 100l8.276-1.875s3.794-2.241 4.527-2.974L58.9 79.052a3.75 3.75 0 0 0 0-5.302m-17.42 20.072c-.213.201-.947.697-1.844 1.269l-4.858-4.858c.498-.683 1.053-1.37 1.395-1.71l12.122-12.121 5.303 5.303z" style="fill:#51586e;fill-opacity:1;stroke-width:.46875045" transform="translate(20 -28.75)scale(1.125)"/><path d="M41.25 55h-30v-3.75h30zM41.25 62.5h-30v-3.75h30zM41.25 70h-30v-3.75h30zM26.25 77.5h-15v-3.75h15z" style="fill:#c4c8d4;fill-opacity:1;stroke-width:.46875045" transform="translate(20 -28.75)scale(1.125)"/></g></svg>