<svg xmlns="http://www.w3.org/2000/svg" height="100" width="100" viewBox="0 0 100 100"><path fill="#fff" paint-order="markers stroke fill" d="M0 0h100v100H0z"/><path d="M40.872 76.375c22.16 0 34.286-18.376 34.286-34.285 0-.517 0-1.034-.024-1.551a24.549 24.549 0 006.016-6.25c-2.162.963-4.488 1.597-6.932 1.903a12.123 12.123 0 005.31-6.674 23.97 23.97 0 01-7.66 2.914 12.027 12.027 0 00-8.789-3.807c-6.65 0-12.055 5.405-12.055 12.055 0 .94.117 1.856.305 2.75-10.01-.494-18.893-5.311-24.839-12.596a12.052 12.052 0 00-1.621 6.063c0 4.182 2.138 7.872 5.358 10.034a12.189 12.189 0 01-5.452-1.504v.164c0 5.828 4.16 10.716 9.658 11.82-1.01.282-2.068.423-3.172.423-.776 0-1.528-.07-2.256-.211a12.05 12.05 0 0011.256 8.365 24.169 24.169 0 01-14.97 5.17c-.963 0-1.926-.047-2.866-.164a34.277 34.277 0 0018.447 5.381" fill="#1d9bf0"/></svg>