<svg version="1.0" xmlns="http://www.w3.org/2000/svg" width="933.333" height="933.333" viewBox="0 0 700 700"><path d="M0 350v350h700V0H0v350zm542.6-208.2c2.3.7 2.5.4-76.1 103.7-15.4 20.3-32.3 42.6-37.5 49.4l-9.4 12.4 3.1 5.6c3.1 5.6 66.8 112.8 116.8 196.6 14.7 24.7 27 45.8 27.3 46.7.4 1.7-2.4 1.8-50.4 1.8h-50.9L415 470.5c-27.8-48.1-50.8-87.4-51.2-87.2-.4.1-11.3 14.1-24.2 31.2l-23.6 31-.2 56-.3 56-46.7.3-46.8.2V142h94v85c0 67.4.3 85 1.3 85 .6-.1 28.9-38.3 62.7-85l61.5-84.9 34-.3c18.7-.2 41-.4 49.5-.5 8.5 0 16.4.2 17.6.5zm16.4 2.3c26.5 4.4 67.6 26.4 87.2 46.6l4.7 4.8-24.6 29.5c-13.5 16.2-25 29.4-25.5 29.2-.5-.1-3.7-2.6-7.1-5.4-12.7-10.6-30.1-20.2-43.4-24-11-3.1-33.1-3.1-44.8.1-9 2.4-22.1 8.4-29.3 13.3l-4.7 3.2 3.5-4.7c1.9-2.6 18.8-24.9 37.5-49.6 33-43.7 34.1-45 37-44.6 1.7.3 5.9 1 9.5 1.6zM220 493.4v60.4l-6.2 1.1c-14.2 2.6-31.8 3.5-46.8 2.3-33.3-2.7-57-10.8-78.1-26.6-13.6-10.3-29.2-28.1-38.2-43.6l-2.6-4.5 31.4-23.3c17.2-12.7 31.8-23.2 32.3-23.2.5 0 1.3.7 1.6 1.6 3 7.7 16.8 23.3 26.1 29.4 12.4 8.1 25.6 11 39.9 9 20.9-2.9 33.2-14.5 38.4-35.9.9-3.9 1.8-7.1 2-7.1.1 0 .2 27.2.2 60.4zm402.1-25.7c10.6 12.6 21.7 25.6 24.7 29l5.3 6.2-7.8 8.2c-14.2 14.9-31.6 27.7-48.6 35.8-12 5.7-25.7 10.5-26.7 9.4-.9-1.1-43-72.1-43-72.6 0-.2 4.2-1 9.2-1.7 9.8-1.3 21.2-4.6 28-8.1 10.6-5.4 28.6-18.7 35.7-26.3 1.4-1.4 2.8-2.6 3.2-2.6.4 0 9.4 10.2 20 22.7z"/></svg>