<svg viewBox="0 0 128 128" xmlns="http://www.w3.org/2000/svg"><circle cx="63.891" cy="960.11" r="63.891" fill="#fff" transform="translate(0 -896)"/><path d="M64 0C28.656 0 0 28.656 0 64c0 28.281 18.336 52.266 43.77 60.727 3.2.586 4.367-1.39 4.367-3.078 0-1.524-.058-6.57-.09-11.914-17.797 3.867-21.559-7.547-21.559-7.547-2.914-7.39-7.105-9.36-7.105-9.36-5.817-3.968.441-3.89.441-3.89 6.426.445 9.809 6.594 9.809 6.594 5.71 9.781 14.984 6.953 18.625 5.312.582-4.125 2.238-6.953 4.062-8.547-14.207-1.617-29.152-7.109-29.152-31.633 0-6.992 2.496-12.695 6.582-17.176-.652-1.625-2.855-8.136.633-16.945 0 0 5.367-1.718 17.602 6.563 5.102-1.426 10.574-2.129 16.016-2.153 5.438.024 10.914.735 16.024 2.16 12.211-8.288 17.586-6.562 17.586-6.562 3.5 8.816 1.297 15.32.64 16.938 4.102 4.48 6.579 10.184 6.579 17.176 0 24.586-14.97 30-29.226 31.586 2.305 1.984 4.344 5.875 4.344 11.844 0 8.555-.086 15.453-.086 17.562 0 1.703 1.164 3.695 4.406 3.07 25.414-8.476 43.734-32.46 43.734-60.727 0-35.344-28.656-64-64-64z"/></svg>