<svg xmlns="http://www.w3.org/2000/svg" viewBox="0 0 100 100" height="100" width="100"><path paint-order="markers stroke fill" d="M0 0h100v100H0z"/><path d="M34.194 99.912c2.501.47 3.413-1.114 3.413-2.473 0-1.215-.043-4.441-.068-8.718-13.907 3.097-16.842-6.873-16.842-6.873-2.274-5.92-5.552-7.497-5.552-7.497-4.54-3.182.343-3.119.343-3.119 5.019.365 7.659 5.284 7.659 5.284 4.46 7.834 11.703 5.57 14.552 4.261.454-3.314 1.743-5.573 3.174-6.854-11.103-1.294-22.776-5.693-22.776-25.338 0-5.596 1.95-10.172 5.148-13.756-.516-1.297-2.232-6.509.488-13.568 0 0 4.199-1.378 13.751 5.256 3.987-1.136 8.266-1.706 12.517-1.725 4.245.02 8.524.589 12.517 1.725 9.546-6.634 13.736-5.256 13.736-5.256 2.729 7.06 1.013 12.271.497 13.568 3.205 3.584 5.142 8.16 5.142 13.756 0 19.695-11.692 24.029-22.83 25.297 1.795 1.583 3.394 4.711 3.394 9.495 0 6.851-.061 12.381-.061 14.062 0 1.372.899 2.967 3.437 2.467" fill="#fff" fill-rule="evenodd"/></svg>