<svg xmlns="http://www.w3.org/2000/svg" viewBox="0 0 512 512"><path fill="#203060" d="M0 0h512v512H0z"/><path fill="#fff" d="m380.21 129.61-51.12 65.09c4.945-5.013 10.48-8.972 16.627-11.833q11.78-5.68 24.736-5.678 13.741-.001 24.341 5.678 10.994 5.301 20.809 14.012l30.625-35.595q-12.956-12.874-32.587-22.342c-10.124-5.077-21.272-8.182-33.431-9.332zm-207.85.092v252.52h59.724v-67.778l30.878-38.732 64.598 106.51h65.412l-94.662-151.82 80.039-100.7h-65.818l-78.819 103.41h-1.626v-103.41zm-1.755 163.74c-.311 14.966-3.098 25.44-8.362 31.413Q154.25 334 138.263 334q-9.99 0-19.583-6.095-9.593-6.096-16.785-18.67L61.929 337.43q13.588 22.857 33.572 33.907 20.383 11.048 50.358 11.048 13.556 0 24.748-2.707zm248.85 20.631q-9.423 9.845-21.986 16.66-12.17 6.438-27.877 6.439c-.997 0-1.978-.03-2.953-.068l28.088 45.17h.013c21.577-4.955 40.025-16.073 55.34-33.364z"/></svg>