<svg xmlns="http://www.w3.org/2000/svg" width="100" viewBox="0 0 100 100" height="100"><path fill="#ccbf2f" paint-order="markers stroke fill" d="M0 0h100v100H0z"/><path d="M44.282 40.08h-15v15h15zm-15 22.5h37.5v-3.75h-37.5zm0 7.5h37.5v-3.75h-37.5zm18.75-30v3.75h18.75v-3.75zm0 11.25h18.75v-3.75h-18.75z" fill="#c4c8d4"/><path d="M76.25 20h-52.5A3.755 3.755 0 0020 23.75v52.5A3.755 3.755 0 0023.75 80h52.5A3.755 3.755 0 0080 76.25v-52.5A3.755 3.755 0 0076.25 20z" fill="#fff"/><path d="M46.25 38.75h-15v15h15zm-15 22.5h37.5V57.5h-37.5zm0 7.5h37.5V65h-37.5zm18.75-30v3.75h18.75v-3.75zM50 50h18.75v-3.75H50z" fill="#c4c8d4"/><path d="M76.25 20h-52.5A3.755 3.755 0 0020 23.75v52.5A3.755 3.755 0 0023.75 80h52.5A3.755 3.755 0 0080 76.25v-52.5A3.755 3.755 0 0076.25 20zm-9.375 3.75a1.874 1.874 0 110 3.75 1.874 1.874 0 110-3.75zm-33.75 0h26.25a1.874 1.874 0 110 3.75h-26.25a1.874 1.874 0 110-3.75zm-7.5 0a1.874 1.874 0 110 3.75 1.874 1.874 0 110-3.75zM76.25 72.5a3.755 3.755 0 01-3.75 3.75h-45a3.755 3.755 0 01-3.75-3.75V35a3.755 3.755 0 013.75-3.75h45A3.755 3.755 0 0176.25 35zm-1.875-45a1.874 1.874 0 110-3.75 1.874 1.874 0 110 3.75z" fill="#51586e"/></svg>