<svg version="1.1" viewBox="0 0 44 44" xmlns="http://www.w3.org/2000/svg"><path d="m32.674 11.138-4.3931 5.5937c.42497-.43085.90062-.771 1.4289-1.0169.67482-.32543 1.3834-.48798 2.1258-.48798.78731 0 1.4845.16255 2.0918.48798.62984.30373 1.226.70515 1.7883 1.2042l2.6318-3.059c-.74231-.73762-1.6757-1.3776-2.8004-1.92-.87003-.43635-1.8281-.70317-2.873-.80195zm-17.862.008v21.701h5.1325v-5.8247l2.6536-3.3285 5.5514 9.1532h5.6213l-8.135-13.047 6.8784-8.6539h-5.6562l-6.7735 8.8868h-.1397v-8.8868zm-.1508 14.071c-.02678 1.2861-.26629 2.1862-.71866 2.6996-.45794.52387-1.1448.78583-2.0607.78583-.57243 0-1.1334-.17453-1.683-.52378-.54954-.34924-1.0303-.88404-1.4425-1.6044l-3.4346 2.4229c.77848 1.3096 1.7402 2.2809 2.8851 2.9139 1.1677.633 2.6104.94944 4.3276.94944.77669 0 1.4856-.0776 2.1268-.23264zm21.386 1.773c-.53986.56407-1.1696 1.0412-1.8894 1.4317-.69732.36882-1.4958.55331-2.3957.55331-.08568 0-.16997-.003-.25382-.006l2.4138 3.8818h.0012c1.8543-.42576 3.4396-1.3813 4.7558-2.8672z"/></svg>