<?xml version="1.0" encoding="UTF-8" standalone="no"?>
<svg
   xmlns:dc="http://purl.org/dc/elements/1.1/"
   xmlns:cc="http://creativecommons.org/ns#"
   xmlns:rdf="http://www.w3.org/1999/02/22-rdf-syntax-ns#"
   xmlns:svg="http://www.w3.org/2000/svg"
   xmlns="http://www.w3.org/2000/svg"
   xmlns:sodipodi="http://sodipodi.sourceforge.net/DTD/sodipodi-0.dtd"
   xmlns:inkscape="http://www.inkscape.org/namespaces/inkscape"
   enable-background="new 0 0 128 128"
   height="100"
   id="Layer_1"
   version="1.1"
   viewBox="0 0 100 100"
   width="100"
   xml:space="preserve"
   sodipodi:docname="icon-blog.svg"
   inkscape:version="0.92.2 (5c3e80d, 2017-08-06)"><metadata
     id="metadata23"><rdf:RDF><cc:Work
         rdf:about=""><dc:format>image/svg+xml</dc:format><dc:type
           rdf:resource="http://purl.org/dc/dcmitype/StillImage" /><dc:title></dc:title></cc:Work></rdf:RDF></metadata><defs
     id="defs21" /><sodipodi:namedview
     pagecolor="#ffffff"
     bordercolor="#666666"
     borderopacity="1"
     objecttolerance="10"
     gridtolerance="10"
     guidetolerance="10"
     inkscape:pageopacity="0"
     inkscape:pageshadow="2"
     inkscape:window-width="1576"
     inkscape:window-height="1408"
     id="namedview19"
     showgrid="false"
     inkscape:zoom="11.1"
     inkscape:cx="49.130845"
     inkscape:cy="50"
     inkscape:window-x="55"
     inkscape:window-y="0"
     inkscape:window-maximized="0"
     inkscape:current-layer="g920"
     inkscape:pagecheckerboard="true" /><g
     inkscape:groupmode="layer"
     id="layer2"
     inkscape:label="Layer 2"
     sodipodi:insensitive="true"
     style="display:inline"><rect
       style="opacity:1;fill:#e66045;fill-opacity:1;stroke:none;stroke-width:39.34760284;stroke-linecap:square;stroke-linejoin:miter;stroke-miterlimit:4;stroke-dasharray:none;stroke-opacity:1;paint-order:markers stroke fill"
       id="rect883"
       width="100"
       height="100"
       x="0"
       y="1.4210855e-014" /></g><g
     inkscape:groupmode="layer"
     id="layer1"
     inkscape:label="Layer 1"
     style="display:inline"><g
       id="g920"
       transform="translate(0,3.7500005)"><path
         sodipodi:nodetypes="sssscsssscs"
         d="M 71.071428,13 H 28.928572 C 24.273894,13 20.5,16.72192 20.5,21.312501 V 71.1875 c 0,4.590576 3.773894,8.3125 8.428572,8.3125 8.102346,-0.04058 2.347279,-3.700415 20.82632,-3.700415 1.360119,0 2.387965,-0.01834 7.736023,-0.07533 11.073086,-0.117999 18.292615,-10.661413 18.241983,-24.791238 -0.01861,-5.194017 -0.02251,-5.55885 -0.02251,-6.441394 0,-18.103146 3.758902,-12.81495 3.789615,-23.179125 C 79.47144,16.722007 75.72611,13 71.071428,13 Z"
         id="path2-7"
         style="clip-rule:evenodd;display:inline;fill:#ffffff;fill-opacity:1;fill-rule:evenodd;stroke-width:0.52314591"
         inkscape:connector-curvature="0" /><rect
         transform="rotate(45)"
         y="-14.769033"
         x="89.27179"
         height="21.90675"
         width="10.150086"
         id="rect905"
         style="display:inline;opacity:1;fill:#c4c8d4;fill-opacity:1;stroke:none;stroke-width:23.44338036;stroke-linecap:square;stroke-linejoin:miter;stroke-miterlimit:4;stroke-dasharray:none;stroke-opacity:1;paint-order:markers stroke fill" /><g
         transform="matrix(1.125,0,0,1.125,20,-32.500001)"
         id="g838"><g
           id="g6"
           style="fill:#51586e;fill-opacity:1"
           transform="matrix(0.47619048,0,0,0.46875,0,40)"><g
             id="g4"
             style="fill:#51586e;fill-opacity:1"><path
               d="M 96,0 H 16 C 7.164,0 0,7.164 0,16 v 96 c 0,8.836 7.164,16 16,16 h 44 v -8 H 16 c -4.406,0 -8,-3.586 -8,-8 V 16 c 0,-4.414 3.594,-8 8,-8 h 80 c 4.414,0 8,3.586 8,8 v 47.031 l 8,-8 V 16 C 112,7.164 104.836,0 96,0 Z"
               id="path2"
               style="clip-rule:evenodd;fill:#51586e;fill-opacity:1;fill-rule:evenodd"
               inkscape:connector-curvature="0" /></g></g><path
           d="M 58.901365,73.75 56.250109,71.09875 C 55.517452,70.36609 54.558388,70 53.598855,70 c -0.959534,0 -1.919067,0.36609 -2.651256,1.09875 L 34.848817,87.1975 C 34.11616,87.93016 31.876,90.76234 31.875063,91.721875 L 30.000058,100 38.276325,98.125 c 0,0 3.79407,-2.24109 4.526259,-2.97375 L 58.901365,79.0525 c 1.464846,-1.464375 1.464846,-3.839535 0,-5.3025 z M 41.480706,93.821875 c -0.212345,0.20157 -0.946877,0.6975 -1.844066,1.26891 l -4.857666,-4.85766 c 0.498282,-0.682965 1.052814,-1.36968 1.395471,-1.71 l 12.12143,-12.12141 5.30298,5.302965 z"
           id="path8"
           style="fill:#51586e;fill-opacity:1;stroke-width:0.46875045"
           inkscape:connector-curvature="0" /><path
           d="M 41.250081,55 H 11.250022 v -3.75 h 30.000059 z"
           id="path10"
           style="fill:#c4c8d4;fill-opacity:1;stroke-width:0.46875045"
           inkscape:connector-curvature="0" /><path
           d="M 41.250081,62.5 H 11.250022 v -3.75 h 30.000059 z"
           id="path12"
           style="fill:#c4c8d4;fill-opacity:1;stroke-width:0.46875045"
           inkscape:connector-curvature="0" /><path
           d="M 41.250081,70 H 11.250022 v -3.75 h 30.000059 z"
           id="path14"
           style="fill:#c4c8d4;fill-opacity:1;stroke-width:0.46875045"
           inkscape:connector-curvature="0" /><path
           d="M 26.250051,77.5 H 11.250022 v -3.75 h 15.000029 z"
           id="path16"
           style="fill:#c4c8d4;fill-opacity:1;stroke-width:0.46875045"
           inkscape:connector-curvature="0" /></g></g></g></svg>