<?xml version="1.0" encoding="UTF-8" standalone="no"?>
<svg
   xmlns:dc="http://purl.org/dc/elements/1.1/"
   xmlns:cc="http://creativecommons.org/ns#"
   xmlns:rdf="http://www.w3.org/1999/02/22-rdf-syntax-ns#"
   xmlns:svg="http://www.w3.org/2000/svg"
   xmlns="http://www.w3.org/2000/svg"
	 viewBox="0 0 100 100"
   version="1.1"
   id="svg3070"
   height="100"
   width="100">
  <defs
     id="defs3072" />
  <metadata
     id="metadata3075">
    <rdf:RDF>
      <cc:Work
         rdf:about="">
        <dc:format>image/svg+xml</dc:format>
        <dc:type
           rdf:resource="http://purl.org/dc/dcmitype/StillImage" />
        <dc:title></dc:title>
      </cc:Work>
    </rdf:RDF>
  </metadata>
  <g
     transform="translate(0,60)"
     style="display:inline"
     id="layer3">
    <rect
       y="-60"
       x="0"
       height="100"
       width="100"
       id="rect834"
       style="opacity:1;fill:#3861b6;fill-opacity:1;stroke:none;stroke-width:66.50318146;stroke-linecap:square;stroke-linejoin:miter;stroke-miterlimit:4;stroke-dasharray:none;stroke-opacity:1;paint-order:markers stroke fill" />
  </g>
  <g
     transform="translate(0,60)"
     style="display:inline"
     id="layer4">
    <path
       style="display:inline;fill:#ffffff;fill-opacity:1;stroke-width:1.02694321"
       id="path10-0-6"
       d="M 33.118237,18.956459 H 20.882432 v -39.369618 h 12.236835 z m -6.112262,-44.749875 c -3.917905,-2.9e-4 -7.093743,-3.176725 -7.093475,-7.094773 2.89e-4,-3.918049 3.176601,-7.094031 7.094505,-7.093742 3.917908,0 7.093992,3.176209 7.093992,7.094257 0,3.918048 -3.176084,7.094258 -7.093992,7.094258 M 78.945748,18.956459 H 66.722278 V -0.18714857 c 0,-4.56586003 -0.0821,-10.44215043 -6.356666,-10.44215043 -6.366937,0 -7.342519,4.9746054 -7.342519,10.11045793 V 18.955429 H 40.798592 V -20.413159 H 52.53428 v 5.380258 h 0.164375 c 2.393285,-4.090885 6.842428,-6.533958 11.578565,-6.357925 12.38983,0 14.67372,8.148937 14.67372,18.7513024 l -0.004,21.5959826" />
  </g>
</svg>
