<?xml version="1.0" encoding="UTF-8" standalone="no"?>
<svg
   xmlns:dc="http://purl.org/dc/elements/1.1/"
   xmlns:cc="http://creativecommons.org/ns#"
   xmlns:rdf="http://www.w3.org/1999/02/22-rdf-syntax-ns#"
   xmlns:svg="http://www.w3.org/2000/svg"
   xmlns="http://www.w3.org/2000/svg"
   height="100"
   width="100"
   xml:space="preserve"
   viewBox="0 0 100 100"
   y="0px"
   x="0px"
   id="White"
   version="1.1"><metadata
     id="metadata11"><rdf:RDF><cc:Work
         rdf:about=""><dc:format>image/svg+xml</dc:format><dc:type
           rdf:resource="http://purl.org/dc/dcmitype/StillImage" /><dc:title></dc:title></cc:Work></rdf:RDF></metadata><defs
     id="defs9" /><style
     id="style2"
     type="text/css">
	.st0{fill:#FFFFFF;}
</style><g
     transform="translate(0,-300)"
     style="display:inline"
     id="layer1"><rect
       y="300"
       x="0"
       height="100"
       width="100"
       id="rect819"
       style="opacity:1;fill:#ffffff;fill-opacity:1;stroke:none;stroke-width:1.90739846;stroke-linecap:square;stroke-linejoin:miter;stroke-miterlimit:4;stroke-dasharray:none;stroke-opacity:1;paint-order:markers stroke fill" /></g><g
     transform="translate(0,-300)"
     style="display:inline"
     id="layer2"><path
       style="fill:#1d9bf0;fill-opacity:1;stroke-width:0.2349921"
       id="path4"
       d="m 40.87203,376.375 c 22.159932,0 34.285622,-18.37622 34.285622,-34.28507 0,-0.51698 0,-1.03396 -0.0235,-1.55093 2.349941,-1.69192 4.39439,-3.83035 6.015848,-6.25075 -2.161945,0.96348 -4.488385,1.59795 -6.932323,1.90343 2.490935,-1.48043 4.394388,-3.85383 5.310865,-6.67373 -2.326442,1.38645 -4.911375,2.37343 -7.660805,2.9139 -2.208945,-2.3499 -5.334365,-3.80685 -8.788775,-3.80685 -6.65033,0 -12.055192,5.40478 -12.055192,12.055 0,0.93995 0.1175,1.85643 0.305492,2.74938 -10.010745,-0.49348 -18.893517,-5.31078 -24.838867,-12.59548 -1.033973,1.78593 -1.621458,3.85385 -1.621458,6.06275 0,4.18283 2.138445,7.87218 5.357863,10.03408 -1.97395,-0.0705 -3.830403,-0.61098 -5.45186,-1.50393 v 0.1645 c 0,5.82775 4.159393,10.71555 9.658253,11.82 -1.010473,0.28198 -2.067948,0.42298 -3.172418,0.42298 -0.77548,0 -1.527462,-0.0705 -2.255942,-0.2115 1.52746,4.7938 5.992347,8.27167 11.256212,8.36565 -4.135895,3.24287 -9.329262,5.1698 -14.969117,5.1698 -0.963476,0 -1.926952,-0.047 -2.866928,-0.1645 5.310865,3.38385 11.655703,5.38127 18.44703,5.38127"
       class="st0" /></g></svg>