<svg version="1.1" viewBox="0 0 512 512" xmlns="http://www.w3.org/2000/svg"><path d="m0 0h512v512h-512z" fill="#203060"/><path d="m380.21 129.61-51.12 65.09c4.9451-5.0135 10.48-8.9716 16.627-11.833 7.8525-3.7868 16.098-5.6783 24.736-5.6783 9.1614 0 17.274 1.8915 24.341 5.6783 7.329 3.5343 14.266 8.2053 20.809 14.012l30.625-35.595c-8.6378-8.5832-19.499-16.03-32.587-22.342-10.124-5.0775-21.272-8.1823-33.431-9.3318zm-207.85.0924v252.52h59.724v-67.778l30.878-38.732 64.598 106.51h65.412l-94.662-151.82 80.039-100.7h-65.818l-78.819 103.41h-1.6256v-103.41zm-1.7548 163.74c-.3116 14.966-3.0986 25.439-8.3626 31.413-5.3288 6.0959-13.321 9.1442-23.979 9.1442-6.661 0-13.189-2.0309-19.584-6.0949-6.3946-4.0639-11.989-10.287-16.785-18.669l-39.966 28.194c9.0587 15.239 20.25 26.541 33.572 33.907 13.588 7.3659 30.375 11.048 50.358 11.048 9.0378 0 17.287-.90289 24.748-2.707zm248.85 20.631c-6.282 6.5637-13.61 12.116-21.986 16.66-8.1143 4.2917-17.406 6.4385-27.877 6.4385-.99702 0-1.9778-.0292-2.9536-.0681l28.088 45.17h.0136c21.577-4.9544 40.025-16.073 55.34-33.364z" fill="#fff"/></svg>