<svg xmlns="http://www.w3.org/2000/svg" viewBox="0 0 135.467 135.467" height="512" width="512"><defs><clipPath clipPathUnits="userSpaceOnUse" id="a"><path paint-order="markers stroke fill" d="M25.997 21.172h131.256v86.829H25.997z" stroke-width="0" stroke-linecap="square" stroke="#000" fill="#5e7d6d"/></clipPath></defs><path paint-order="markers stroke fill" d="M0 0h135.467v135.467H0z" fill="#203060"/><path d="M48.953 37.244v60.93H62.69V81.82l7.103-9.345L84.65 98.174h13.92c-.004-.06-.002-.12 0-.185v-.153c.237-.697-.07-.338.489-.735l-21.136-35.56 18.41-24.297h-15.14L63.065 62.196h-.374V37.244zm50.418 60.381c-.018.01-.037.017-.053.027l.053-.025zm-.053.027h-.001a.03.03 0 01-.008.004l-.013.012-.003.005.08-.044v-.002a.748.748 0 00-.056.024zm-.023.016l.003-.004-.027.015c-.014.009-.026.02-.039.028l.05-.027.014-.012zm.003-.004s.014-.008.012-.008l-.012.006zm-.061.035c-.076.043-.137.081-.006.01zm-.006.01a.28.28 0 00-.044.033.368.368 0 00-.037.044l.063-.05a.7.7 0 01.018-.027zm-.097.053c-.015.005-.149.136-.11.114l.062-.045c.015-.02.033-.04.047-.062.004-.006.004-.008.001-.008zm-.454.218c-.007-.006.012.033.028.065v-.017l-.009-.018a.221.221 0 00-.02-.03zm-.09.07a.409.409 0 00-.005.124h.001c0-.04-.001-.08.003-.124zM48.925 62.442v13.21c0 4.05-.654 6.854-1.962 8.41-1.246 1.496-3.115 2.243-5.607 2.243-1.558 0-3.084-.498-4.58-1.494-1.494-.997-2.803-2.523-3.924-4.58l-9.345 6.916c2.117 3.738 4.735 6.51 7.85 8.318 3.177 1.806 7.101 2.71 11.774 2.71 20.12.843 18.893-32.256 5.794-35.733zm35.189-9.309a13.542 13.542 0 013.787-2.739 12.995 12.995 0 015.887-1.402c2.18 0 4.113.467 5.794 1.402 1.745.872 3.396 2.025 4.953 3.458l7.29-8.785c-2.056-2.118-4.642-3.956-7.757-5.513a21.97 21.97 0 00-7.47-2.304c-9.968.331-14.946 11.826-12.484 15.882z" font-size="123.472" font-weight="700" letter-spacing="0" word-spacing="0" style="line-height:1.25;-inkscape-font-specification:'Source Sans Pro, Bold';font-variant-ligatures:normal;font-variant-caps:normal;font-variant-numeric:normal;font-feature-settings:normal;text-align:start" font-family="Source Sans Pro" fill="#fffff7"/><path d="M117.88 85.99c-1.975 2.14-4.28 3.95-6.914 5.432-2.551 1.4-5.473 2.1-8.766 2.1-19.324-9.527-11.492 15.637-.74 15.68 10.618 0 19.302-3.95 26.052-11.853z" clip-path="url(#a)" font-size="123.472" font-weight="700" letter-spacing="0" transform="translate(15.45 16.444) scale(.75686)" word-spacing="0" style="line-height:1.25;-inkscape-font-specification:'Source Sans Pro, Bold';font-variant-ligatures:normal;font-variant-caps:normal;font-variant-numeric:normal;font-feature-settings:normal;text-align:start" font-family="Source Sans Pro" fill="#fff"/><path d="M48.853 98.174v-60.93m29.204 24.287l18.447-24.356" fill="#203060" stroke="#203060" stroke-width=".201"/><path d="M78.751 62.743l21.136 35.559" fill="none" stroke="#203060" stroke-width=".201"/></svg>