<?xml version="1.0" standalone="no"?>
<!DOCTYPE svg PUBLIC "-//W3C//DTD SVG 20010904//EN"
 "http://www.w3.org/TR/2001/REC-SVG-20010904/DTD/svg10.dtd">
<svg version="1.0" xmlns="http://www.w3.org/2000/svg"
 width="700.000000pt" height="700.000000pt" viewBox="0 0 700.000000 700.000000"
 preserveAspectRatio="xMidYMid meet">
<g transform="translate(0.000000,700.000000) scale(0.100000,-0.100000)"
fill="#000000" stroke="none">
<path d="M0 3500 l0 -3500 3500 0 3500 0 0 3500 0 3500 -3500 0 -3500 0 0
-3500z m5426 2082 c23 -7 25 -4 -761 -1037 -154 -203 -323 -426 -375 -494
l-94 -124 31 -56 c31 -56 668 -1128 1168 -1966 147 -247 270 -458 273 -467 4
-17 -24 -18 -504 -18 l-509 0 -505 875 c-278 481 -508 874 -512 872 -4 -1
-113 -141 -242 -312 l-236 -310 -2 -560 -3 -560 -467 -3 -468 -2 0 2080 0
2080 470 0 470 0 0 -850 c0 -674 3 -850 13 -850 6 1 289 383 627 850 l615 849
340 3 c187 2 410 4 495 5 85 0 164 -2 176 -5z m164 -23 c265 -44 676 -264 872
-466 l47 -48 -246 -295 c-135 -162 -250 -294 -255 -292 -5 1 -37 26 -71 54
-127 106 -301 202 -434 240 -110 31 -331 31 -448 -1 -90 -24 -221 -84 -293
-133 l-47 -32 35 47 c19 26 188 249 375 496 330 437 341 450 370 446 17 -3 59
-10 95 -16z m-3390 -3493 l0 -604 -62 -11 c-142 -26 -318 -35 -468 -23 -333
27 -570 108 -781 266 -136 103 -292 281 -382 436 l-26 45 314 233 c172 127
318 232 323 232 5 0 13 -7 16 -16 30 -77 168 -233 261 -294 124 -81 256 -110
399 -90 209 29 332 145 384 359 9 39 18 71 20 71 1 0 2 -272 2 -604z m4021
257 c106 -126 217 -256 247 -290 l53 -62 -78 -82 c-142 -149 -316 -277 -486
-358 -120 -57 -257 -105 -267 -94 -9 11 -430 721 -430 726 0 2 42 10 92 17 98
13 212 46 280 81 106 54 286 187 357 263 14 14 28 26 32 26 4 0 94 -102 200
-227z"/>
</g>
</svg>
