<svg height="128" viewBox="0 0 128 128" width="128" xmlns="http://www.w3.org/2000/svg"><g transform="matrix(.256 0 0 .256 0 -141.4)"><rect y="552.36" width="500" height="500" rx="250" ry="250" fill="#0077b5"/><path d="M128.76 642.36c-21.414 0-38.763 17.389-38.763 38.842s17.35 38.842 38.763 38.842 38.763-17.389 38.763-38.842-17.35-38.842-38.763-38.842zm203.03 101.13v.026c-4.378-.015-8.627.16-14.184.448-12.189.63-40.656 13.838-51.079 34.92 0-9.153.105-17.56.105-30.104-12.485 0-28.824.079-62.947.079 0 38.308-.42 173.97-.42 213.5h66.078c0-23.45.316-82.353.316-119.34 0-12.42 7.508-41.105 38.316-41.105 27.974 0 35.816 23.577 35.816 41.105 0 38.523-.29 92.976-.29 119.34h66.475c0-25.772.236-95.78-.553-139.95-.958-53.628-33.533-76.51-62.763-78.316-6.015-.372-10.49-.59-14.868-.606zM95.58 749.7v212.55h66.263V749.7z" fill="#fff"/></g></svg>