<?xml version="1.0" encoding="UTF-8" standalone="no"?>
<svg
   xmlns:dc="http://purl.org/dc/elements/1.1/"
   xmlns:cc="http://creativecommons.org/ns#"
   xmlns:rdf="http://www.w3.org/1999/02/22-rdf-syntax-ns#"
   xmlns:svg="http://www.w3.org/2000/svg"
   xmlns="http://www.w3.org/2000/svg"
   xmlns:sodipodi="http://sodipodi.sourceforge.net/DTD/sodipodi-0.dtd"
   xmlns:inkscape="http://www.inkscape.org/namespaces/inkscape"
   width="512"
   height="512"
   viewBox="0 0 135.467 135.467"
   version="1.1"
   id="svg19"
   sodipodi:docname="icon-site.svg"
   inkscape:version="0.92.2 (5c3e80d, 2017-08-06)">
  <metadata
     id="metadata23">
    <rdf:RDF>
      <cc:Work
         rdf:about="">
        <dc:format>image/svg+xml</dc:format>
        <dc:type
           rdf:resource="http://purl.org/dc/dcmitype/StillImage" />
        <dc:title></dc:title>
      </cc:Work>
    </rdf:RDF>
  </metadata>
  <sodipodi:namedview
     pagecolor="#ffffff"
     bordercolor="#666666"
     borderopacity="1"
     objecttolerance="10"
     gridtolerance="10"
     guidetolerance="10"
     inkscape:pageopacity="0"
     inkscape:pageshadow="2"
     inkscape:window-width="1618"
     inkscape:window-height="1027"
     id="namedview21"
     showgrid="false"
     inkscape:zoom="1.6210938"
     inkscape:cx="256"
     inkscape:cy="256"
     inkscape:window-x="54"
     inkscape:window-y="-8"
     inkscape:window-maximized="1"
     inkscape:current-layer="svg19" />
  <defs
     id="defs2" />
  <defs
     id="defs7">
    <clipPath
       id="a"
       clipPathUnits="userSpaceOnUse">
      <path
         fill="#5e7d6d"
         stroke="#000"
         stroke-linecap="square"
         stroke-width="0"
         d="M25.997 21.172h131.256v86.829H25.997z"
         paint-order="markers stroke fill"
         id="path4" />
    </clipPath>
  </defs>
  <path
     fill="#203060"
     d="M0 0h135.467v135.467H0z"
     paint-order="markers stroke fill"
     id="path9" />
  <path
     fill="#fffff7"
     d="M42.92 27.443v80.503h18.15V86.34l9.384-12.347 19.632 33.954h18.39c-.005-.08-.002-.16 0-.245 0-.01 0 .003.001-.004v-.199c.313-.92-.094-.446.645-.97L81.196 59.544l24.324-32.102H85.518L61.564 60.41h-.494V27.443zm66.614 79.778c-.023.012-.048.023-.07.036l.071-.033zm-.07.036h-.001a.04.04 0 01-.01.005l-.018.016-.003.006.104-.058v-.002c-.01.003-.043.018-.073.032zm-.03.021l.004-.006c-.002 0-.026.015-.036.021-.018.011-.034.025-.051.037l.065-.036.02-.016zm.004-.006s.018-.01.016-.01l-.016.008v.002zm-.081.047c-.1.057-.18.107-.008.013l.008-.013zm-.008.013c-.02.014-.04.027-.058.043-.014.012-.032.038-.049.059l.084-.066a.926.926 0 01.023-.036zm-.127.07c-.02.006-.197.18-.147.15.029-.019.055-.04.083-.059.02-.027.043-.053.062-.082.005-.007.005-.01.002-.01zm-.601.288c-.008-.008.017.044.037.086l.001-.022-.012-.024a.292.292 0 00-.026-.04zm-.119.093a.54.54 0 00-.006.164h.002c0-.054-.002-.107.004-.164zM42.884 60.736V78.19c0 5.35-.864 9.055-2.592 11.112-1.647 1.976-4.116 2.963-7.409 2.963-2.058 0-4.074-.658-6.05-1.975-1.975-1.317-3.704-3.333-5.186-6.05L9.3 93.377c2.798 4.939 6.256 8.602 10.372 10.99 4.198 2.386 9.383 3.58 15.557 3.58 26.583 1.114 24.962-42.618 7.655-47.211zm46.493-12.3c1.497-1.524 3.165-2.731 5.004-3.619 2.47-1.235 5.062-1.852 7.779-1.852 2.88 0 5.433.617 7.655 1.852 2.305 1.152 4.487 2.675 6.544 4.569l9.631-11.607c-2.716-2.799-6.132-5.227-10.248-7.285a29.027 29.027 0 00-9.869-3.043c-13.171.437-19.748 15.624-16.496 20.984z"
     font-family="Source Sans Pro"
     font-size="123.472"
     font-weight="700"
     letter-spacing="0"
     word-spacing="0"
     style="line-height:1.25;-inkscape-font-specification:'Source Sans Pro, Bold';font-variant-ligatures:normal;font-variant-caps:normal;font-variant-numeric:normal;font-feature-settings:normal;text-align:start"
     id="path11" />
  <path
     fill="#fff"
     d="M117.88 85.99c-1.975 2.14-4.28 3.95-6.914 5.432-2.551 1.4-5.473 2.1-8.766 2.1-19.324-9.527-11.492 15.637-.74 15.68 10.618 0 19.302-3.95 26.052-11.853z"
     clip-path="url(#a)"
     font-family="Source Sans Pro"
     font-size="123.472"
     font-weight="700"
     letter-spacing="0"
     transform="translate(-1.345 -.039)"
     word-spacing="0"
     style="line-height:1.25;-inkscape-font-specification:'Source Sans Pro, Bold';font-variant-ligatures:normal;font-variant-caps:normal;font-variant-numeric:normal;font-feature-settings:normal;text-align:start"
     id="path13" />
  <path
     fill="#203060"
     stroke="#203060"
     stroke-width=".265"
     d="M42.788 107.947V27.443M81.373 59.532l24.374-32.181"
     id="path15" />
  <path
     fill="none"
     stroke="#203060"
     stroke-width=".265"
     d="M82.291 61.133l27.925 46.982"
     id="path17" />
</svg>
