<svg version="1.1" height="128px" viewBox="0 0 128 128" width="128px" xmlns="http://www.w3.org/2000/svg"><g transform="translate(0 -896)"><circle cx="63.891" cy="960.11" r="63.891" fill="#fff"/></g><g transform="translate(0 -896)"><path d="m64 896c-35.344 0-64 28.656-64 64 0 28.281 18.336 52.266 43.77 60.727 3.1992 0.586 4.3672-1.3906 4.3672-3.0781 0-1.5235-0.05862-6.5703-0.08987-11.914-17.797 3.8671-21.559-7.5469-21.559-7.5469-2.914-7.3906-7.1055-9.3594-7.1055-9.3594-5.8164-3.9688 0.44125-3.8906 0.44125-3.8906 6.4258 0.44525 9.8088 6.5938 9.8088 6.5938 5.711 9.7813 14.984 6.9531 18.625 5.3125 0.58175-4.125 2.238-6.9531 4.0625-8.5469-14.207-1.6171-29.152-7.1094-29.152-31.633 0-6.9922 2.4961-12.695 6.582-17.176-0.65238-1.625-2.8555-8.1368 0.63275-16.945 0 0 5.3672-1.7188 17.602 6.5625 5.1015-1.4258 10.574-2.1289 16.016-2.1524 5.4375 0.0235 10.914 0.73437 16.024 2.1601 12.211-8.289 17.586-6.5625 17.586-6.5625 3.5 8.8164 1.2969 15.32 0.64062 16.938 4.1015 4.4805 6.5781 10.184 6.5781 17.176 0 24.586-14.969 30-29.226 31.586 2.3048 1.9844 4.3438 5.875 4.3438 11.844 0 8.5548-0.086 15.453-0.086 17.562 0 1.7032 1.164 3.6953 4.4062 3.0703 25.414-8.4765 43.734-32.461 43.734-60.727 0-35.344-28.656-64-64-64z" stroke-width=".125"/></g></svg>
