<svg version="1.1" height="128px" viewBox="0 0 128 128" width="128px" xmlns="http://www.w3.org/2000/svg"><circle cx="64" cy="64" r="64" fill="#d35627"/><g fill="#fff"><rect x="15.729" y="33.627" width="96" height="61.831"/><rect x="29.966" y="28.068" width="67.932" height="8.678"/><rect x="58.034" y="91.932" width="12.475" height="9.7627"/></g><g><g transform="matrix(.89266 0 0 .89266 6.226 7.4802)"><path d="m108 24h-7.223l4.723 3.75-0.387 4.25h2.887c4.41 0 8 3.586 8 8v48c0 4.414-3.59 8-8 8h-40v4c0 2.211-1.789 4-4 4s-4-1.789-4-4v-4h-40c-4.41 0-8-3.586-8-8v-48c0-4.414 3.59-8 8-8h3.707l0.543-3.25 4.75-4.75h-9c-8.836 0-16 7.164-16 16v48c0 8.836 7.164 16 16 16h32.738c1.656 4.648 6.055 8 11.262 8s9.605-3.352 11.262-8h32.738c8.836 0 16-7.164 16-16v-48c0-8.836-7.164-16-16-16z" fill="#546e7a"/></g><g fill="#cfd8dc" stroke-width=".89266"><path d="m52.644 43.186h-14.282v-7.1412h14.282z"/><path d="m52.644 57.469h-14.282v-7.1412h14.282z"/><path d="m52.644 71.751h-14.282v-7.1412h14.282z"/><path d="m88.35 43.186h-14.282v-7.1412h14.282z"/><path d="m88.35 57.469h-14.282v-7.1412h14.282z"/><path d="m88.35 71.751h-14.282v-7.1412h14.282z"/></g><path d="m81.209 21.763c-6.1718 0-12.305 1.6532-17.853 4.7909-5.5479-3.1377-11.681-4.7909-17.853-4.7909-7.5179 0-15.036 2.3227-21.424 6.9806v58.183c0 1.9737 1.597 3.5706 3.5706 3.5706 0.3526 0 12.347-4.3026 17.853-4.3026 5.6728 0 11.297 1.4506 16.479 4.1142l0.05892-0.03481 0.0036-0.0071c0.40794 0.16068 0.84356 0.26512 1.3113 0.26512s0.90337-0.10444 1.3113-0.26512l0.0036 0.0071 0.05892 0.03481c5.1819-2.6637 10.806-4.1142 16.479-4.1142 5.5059 0 17.501 4.3026 17.853 4.3026 1.9737 0 3.5706-1.597 3.5706-3.5706v-58.183c-6.3878-4.6579-13.906-6.9806-21.424-6.9806zm-49.989 59.669v-48.783c4.3517-2.4477 9.2265-3.7242 14.282-3.7242s9.9308 1.2765 14.282 3.7242v48.782c-4.5508-1.5898-9.3586-2.3995-14.282-2.3995s-9.7317 0.81053-14.282 2.4004zm64.271 0c-4.5508-1.5898-9.3586-2.3995-14.282-2.3995s-9.7317 0.80875-14.282 2.3995v-48.782c4.3517-2.4477 9.2265-3.7242 14.282-3.7242s9.9308 1.2765 14.282 3.7242z" fill="#b0bec5" stroke-width=".89266"/></g></svg>
