<svg version="1.1" height="128px" viewBox="0 0 128 128" width="128px" xmlns="http://www.w3.org/2000/svg"><circle cx="64" cy="64" r="64" fill="#c6c62a"/><rect x="22.438" y="21.625" width="83.291" height="80.511" fill="#fff"/><g><g transform="matrix(.70313 0 0 .70313 20 18)"><path d="m56 40h-32v32h32zm-32 48h80v-8h-80zm0 16h80v-8h-80zm40-64v8h40v-8zm0 24h40v-8h-40z" fill="#b0bec5"/></g><path d="m104.38 18h-78.75c-3.1008 0-5.625 2.5242-5.625 5.625v78.75c0 3.1008 2.5242 5.625 5.625 5.625h78.75c3.1008 0 5.625-2.5242 5.625-5.625v-78.75c0-3.1008-2.5242-5.625-5.625-5.625zm-14.063 5.625c1.5546 0 2.8125 1.2579 2.8125 2.8125 0 1.5546-1.2579 2.8125-2.8125 2.8125-1.5546 0-2.8125-1.2579-2.8125-2.8125 0-1.5546 1.2579-2.8125 2.8125-2.8125zm-50.625 0h39.375c1.5546 0 2.8125 1.2579 2.8125 2.8125 0 1.5546-1.2579 2.8125-2.8125 2.8125h-39.375c-1.5546 0-2.8125-1.2579-2.8125-2.8125 0-1.5546 1.2579-2.8125 2.8125-2.8125zm-11.25 0c1.5546 0 2.8125 1.2579 2.8125 2.8125 0 1.5546-1.2579 2.8125-2.8125 2.8125-1.5546 0-2.8125-1.2579-2.8125-2.8125 0-1.5546 1.2579-2.8125 2.8125-2.8125zm75.938 73.125c0 3.1008-2.5242 5.625-5.625 5.625h-67.5c-3.1008 0-5.625-2.5242-5.625-5.625v-56.25c0-3.1008 2.5242-5.625 5.625-5.625h67.5c3.1008 0 5.625 2.5242 5.625 5.625zm-2.8125-67.5c-1.5546 0-2.8125-1.2579-2.8125-2.8125 0-1.5546 1.2579-2.8125 2.8125-2.8125 1.5546 0 2.8125 1.2579 2.8125 2.8125 0 1.5546-1.2579 2.8125-2.8125 2.8125z" fill="#546e7a" stroke-width=".70313"/></g></svg>
