<svg height="128" viewBox="0 0 128 128" width="128" xmlns="http://www.w3.org/2000/svg"><circle cx="64" cy="64" r="64" fill="#d35627"/><g fill="#fff"><path d="M15.729 33.627h96v61.831h-96z"/><path d="M29.966 28.068h67.932v8.678H29.966zm28.068 63.864h12.475v9.763H58.034z"/></g><path d="M102.633 28.904h-6.447l4.216 3.348-.346 3.793h2.577a7.148 7.148 0 0 1 7.142 7.142v42.847a7.148 7.148 0 0 1-7.142 7.142H66.927v3.57c0 1.974-1.597 3.57-3.57 3.57s-3.571-1.596-3.571-3.57v-3.57H24.079a7.148 7.148 0 0 1-7.141-7.142V43.187a7.148 7.148 0 0 1 7.141-7.142h3.31l.484-2.9 4.24-4.241H24.08c-7.887 0-14.282 6.395-14.282 14.283v42.847c0 7.888 6.395 14.283 14.282 14.283h29.224c1.478 4.149 5.405 7.141 10.053 7.141s8.574-2.992 10.053-7.141h29.224c7.888 0 14.283-6.395 14.283-14.283V43.187c0-7.888-6.395-14.283-14.283-14.283z" fill="#546e7a"/><path d="M52.644 43.186H38.362v-7.141h14.282zm0 14.283H38.362v-7.141h14.282zm0 14.282H38.362V64.61h14.282zM88.35 43.186H74.068v-7.141H88.35zm0 14.283H74.068v-7.141H88.35zm0 14.282H74.068V64.61H88.35z" fill="#cfd8dc"/><path d="M81.209 21.763c-6.172 0-12.305 1.653-17.853 4.79-5.548-3.137-11.681-4.79-17.853-4.79a36.306 36.306 0 0 0-21.424 6.98v58.184a3.568 3.568 0 0 0 3.57 3.57c.353 0 12.348-4.302 17.854-4.302 5.672 0 11.297 1.45 16.479 4.114l.059-.035.003-.007c.408.16.844.265 1.311.265s.904-.104 1.312-.265l.003.007.06.035c5.181-2.664 10.805-4.114 16.478-4.114 5.506 0 17.501 4.302 17.853 4.302a3.568 3.568 0 0 0 3.57-3.57V28.744a36.305 36.305 0 0 0-21.423-6.981zM31.22 81.432V32.649c4.352-2.448 9.227-3.724 14.282-3.724s9.93 1.276 14.282 3.724v48.782c-4.55-1.59-9.359-2.4-14.282-2.4s-9.732.811-14.282 2.4zm64.271 0c-4.55-1.59-9.359-2.4-14.282-2.4s-9.732.81-14.282 2.4V32.65c4.352-2.448 9.227-3.724 14.282-3.724s9.93 1.276 14.282 3.724z" fill="#b0bec5"/></svg>