<?xml version="1.0" encoding="UTF-8" standalone="no"?>
<svg
   xmlns:dc="http://purl.org/dc/elements/1.1/"
   xmlns:cc="http://creativecommons.org/ns#"
   xmlns:rdf="http://www.w3.org/1999/02/22-rdf-syntax-ns#"
   xmlns:svg="http://www.w3.org/2000/svg"
   xmlns="http://www.w3.org/2000/svg"
   xmlns:sodipodi="http://sodipodi.sourceforge.net/DTD/sodipodi-0.dtd"
   xmlns:inkscape="http://www.inkscape.org/namespaces/inkscape"
   height="128"
   id="svg2"
   version="1.1"
   width="128"
   sodipodi:docname="icon-linkedin.svg"
   inkscape:version="0.92.2 (5c3e80d, 2017-08-06)">
  <metadata
     id="metadata13">
    <rdf:RDF>
      <cc:Work
         rdf:about="">
        <dc:format>image/svg+xml</dc:format>
        <dc:type
           rdf:resource="http://purl.org/dc/dcmitype/StillImage" />
        <dc:title></dc:title>
      </cc:Work>
    </rdf:RDF>
  </metadata>
  <sodipodi:namedview
     pagecolor="#ffffff"
     bordercolor="#666666"
     borderopacity="1"
     objecttolerance="10"
     gridtolerance="10"
     guidetolerance="10"
     inkscape:pageopacity="0"
     inkscape:pageshadow="2"
     inkscape:window-width="1618"
     inkscape:window-height="1027"
     id="namedview11"
     showgrid="false"
     inkscape:pagecheckerboard="true"
     fit-margin-top="0"
     fit-margin-left="0"
     fit-margin-right="0"
     fit-margin-bottom="0"
     inkscape:zoom="3.776"
     inkscape:cx="84.781838"
     inkscape:cy="52.563391"
     inkscape:window-x="54"
     inkscape:window-y="-8"
     inkscape:window-maximized="1"
     inkscape:current-layer="svg2" />
  <defs
     id="defs4" />
  <g
     id="layer1"
     transform="matrix(0.256,0,0,0.256,0,-141.40472)">
    <rect
       height="500"
       id="rect2990-1"
       rx="250"
       ry="250"
       style="fill:#0077b5;fill-opacity:1;stroke:none"
       width="500"
       x="0"
       y="552.36218" />
    <g
       id="layer1-9"
       transform="translate(-549.00515,80.294372)" />
    <g
       id="layer1-6"
       transform="translate(-575.71429,39.999999)" />
    <g
       id="layer1-92"
       transform="matrix(0.99533037,0,0,0.99716768,619.96997,-73.128637)">
      <g
         id="layer1-9-7"
         transform="translate(-1068,-236)" />
    </g>
    <path
       d="M 128.76316,642.36224 C 107.34952,642.36224 90,659.75123 90,681.20435 c 0,21.45322 17.34952,38.8421 38.76316,38.8421 21.41364,0 38.76316,-17.38888 38.76316,-38.8421 0,-21.45312 -17.34952,-38.84211 -38.76316,-38.84211 z m 203.02631,101.13158 v 0.0263 c -4.37833,-0.0156 -8.62646,0.15968 -14.18421,0.44737 -12.18891,0.63097 -40.6558,13.83786 -51.07894,34.92106 0,-9.15329 0.10526,-17.55993 0.10526,-30.10527 -12.4852,0 -28.82418,0.0789 -62.94737,0.0789 0,38.30812 -0.42105,173.97085 -0.42105,213.5 h 66.07895 c 0,-23.44978 0.31578,-82.35285 0.31578,-119.34211 0,-12.42047 7.50808,-41.10526 38.31579,-41.10526 27.97383,0 35.81579,23.57737 35.81579,41.10526 0,38.52259 -0.28947,92.97632 -0.28947,119.34211 h 66.47368 c 0,-25.77235 0.23633,-95.77893 -0.55263,-139.94737 -0.95794,-53.62831 -33.53337,-76.50988 -62.76316,-78.31579 -6.01505,-0.37149 -10.49009,-0.5893 -14.86842,-0.60526 z M 95.578947,749.70435 V 962.25698 H 161.84211 V 749.70435 Z"
       id="rect2989-1-7"
       style="fill:#ffffff;fill-opacity:1;stroke:none"
       inkscape:connector-curvature="0" />
  </g>
</svg>
