<?xml version="1.0" encoding="UTF-8" standalone="no"?>
<svg
   xmlns:dc="http://purl.org/dc/elements/1.1/"
   xmlns:cc="http://creativecommons.org/ns#"
   xmlns:rdf="http://www.w3.org/1999/02/22-rdf-syntax-ns#"
   xmlns:svg="http://www.w3.org/2000/svg"
   xmlns="http://www.w3.org/2000/svg"
   xmlns:sodipodi="http://sodipodi.sourceforge.net/DTD/sodipodi-0.dtd"
   xmlns:inkscape="http://www.inkscape.org/namespaces/inkscape"
   height="128.00002"
   width="128"
   version="1.1"
   id="svg4"
   sodipodi:docname="icon-github.svg"
   inkscape:version="0.92.2 (5c3e80d, 2017-08-06)">
  <metadata
     id="metadata10">
    <rdf:RDF>
      <cc:Work
         rdf:about="">
        <dc:format>image/svg+xml</dc:format>
        <dc:type
           rdf:resource="http://purl.org/dc/dcmitype/StillImage" />
        <dc:title></dc:title>
      </cc:Work>
    </rdf:RDF>
  </metadata>
  <defs
     id="defs8" />
  <sodipodi:namedview
     pagecolor="#ffffff"
     bordercolor="#666666"
     borderopacity="1"
     objecttolerance="10"
     gridtolerance="10"
     guidetolerance="10"
     inkscape:pageopacity="0"
     inkscape:pageshadow="2"
     inkscape:window-width="1618"
     inkscape:window-height="1027"
     id="namedview6"
     showgrid="false"
     inkscape:pagecheckerboard="true"
     inkscape:zoom="5.2149125"
     inkscape:cx="58.871462"
     inkscape:cy="60.02743"
     inkscape:window-x="54"
     inkscape:window-y="-8"
     inkscape:window-maximized="1"
     inkscape:current-layer="layer1"
     fit-margin-top="0"
     fit-margin-left="0"
     fit-margin-right="0"
     fit-margin-bottom="0"
     inkscape:measure-start="0,0"
     inkscape:measure-end="0,0" />
  <g
     inkscape:groupmode="layer"
     id="layer2"
     inkscape:label="Layer 2"
     transform="translate(0,-895.99997)">
    <circle
       style="opacity:1;fill:#ffffff;fill-opacity:1;stroke:none;stroke-width:0.21866372;stroke-linecap:round;stroke-linejoin:round;stroke-miterlimit:4;stroke-dasharray:none;stroke-opacity:1"
       id="path817"
       cx="63.890671"
       cy="960.10931"
       r="63.890671" />
  </g>
  <g
     inkscape:groupmode="layer"
     id="layer1"
     inkscape:label="Layer 1"
     transform="translate(0,-895.99997)">
    <path
       style="stroke-width:0.125"
       d="m 64,895.99997 c -35.34375,0 -64,28.65625 -64,64 0,28.28125 18.336,52.26563 43.7695,60.72653 3.19925,0.586 4.36725,-1.3906 4.36725,-3.0781 0,-1.5235 -0.05862,-6.5703 -0.08987,-11.914 -17.796875,3.8671 -21.558625,-7.54692 -21.558625,-7.54692 -2.914,-7.39063 -7.1055,-9.35938 -7.1055,-9.35938 -5.816375,-3.96875 0.44125,-3.89063 0.44125,-3.89063 6.42575,0.44525 9.80875,6.59376 9.80875,6.59376 5.711,9.78127 14.984375,6.95312 18.625,5.3125 0.58175,-4.125 2.238,-6.95313 4.0625,-8.54688 -14.207,-1.61713 -29.15225,-7.10938 -29.15225,-31.63288 0,-6.99225 2.496125,-12.69525 6.582,-17.17575 -0.652375,-1.625 -2.8555,-8.13675 0.63275,-16.94525 0,0 5.36725,-1.71875 17.6015,6.5625 5.1015,-1.42575 10.57425,-2.12887 16.015625,-2.15237 5.4375,0.0235 10.914,0.73437 16.0235,2.16012 12.211,-8.289 17.586,-6.5625 17.586,-6.5625 3.5,8.81638 1.296875,15.32025 0.640625,16.9375 4.101505,4.4805 6.578125,10.18363 6.578125,17.17575 0,24.586 -14.96875,30 -29.2265,31.586 2.30475,1.98438 4.34375,5.87501 4.34375,11.84373 0,8.5548 -0.086,15.4532 -0.086,17.5625 0,1.7032 1.164,3.6953 4.40625,3.0703 C 109.67975,1012.25 128,988.2656 128,959.99997 c 0,-35.34375 -28.65625,-64 -64,-64 z"
       id="path2"
       inkscape:connector-curvature="0" />
  </g>
</svg>
