<svg xmlns="http://www.w3.org/2000/svg" height="128" width="128"><circle cx="63.891" cy="960.109" r="63.891" fill="#fff" transform="translate(0 -896)"/><path d="M64 0C28.656 0 0 28.656 0 64c0 28.281 18.336 52.266 43.77 60.727 3.199.586 4.367-1.391 4.367-3.079 0-1.523-.059-6.57-.09-11.914-17.797 3.868-21.559-7.546-21.559-7.546-2.914-7.391-7.105-9.36-7.105-9.36-5.817-3.969.441-3.89.441-3.89 6.426.445 9.809 6.593 9.809 6.593 5.71 9.782 14.984 6.953 18.625 5.313.582-4.125 2.238-6.953 4.062-8.547-14.207-1.617-29.152-7.11-29.152-31.633 0-6.992 2.496-12.695 6.582-17.176-.652-1.625-2.855-8.137.633-16.945 0 0 5.367-1.719 17.601 6.562C53.086 31.68 58.56 30.977 64 30.953c5.437.024 10.914.734 16.023 2.16 12.211-8.289 17.586-6.562 17.586-6.562 3.5 8.816 1.297 15.32.641 16.937 4.102 4.48 6.578 10.184 6.578 17.176 0 24.586-14.969 30-29.226 31.586 2.304 1.984 4.343 5.875 4.343 11.844 0 8.555-.086 15.453-.086 17.562 0 1.703 1.164 3.696 4.407 3.07C109.68 116.25 128 92.267 128 64c0-35.344-28.656-64-64-64z"/></svg>