<svg xmlns="http://www.w3.org/2000/svg" height="128" width="128"><circle cx="64" cy="64" r="64" fill="#d35627"/><g fill="#fff"><path d="M15.729 33.627h96v61.831h-96z"/><path d="M29.966 28.068h67.932v8.678H29.966zm28.068 63.864h12.475v9.763H58.034z"/></g><path d="M102.633 28.904h-6.448l4.216 3.347-.345 3.794h2.577a7.148 7.148 0 0 1 7.141 7.141v42.848a7.148 7.148 0 0 1-7.141 7.141H66.927v3.57a3.568 3.568 0 0 1-3.571 3.571 3.568 3.568 0 0 1-3.57-3.57v-3.57H24.078a7.148 7.148 0 0 1-7.141-7.142V43.186a7.148 7.148 0 0 1 7.141-7.14h3.31l.484-2.902 4.24-4.24h-8.034c-7.887 0-14.282 6.395-14.282 14.282v42.848c0 7.887 6.395 14.282 14.282 14.282h29.224c1.478 4.15 5.405 7.142 10.053 7.142 4.648 0 8.574-2.993 10.053-7.142h29.224c7.887 0 14.282-6.395 14.282-14.282V43.186c0-7.887-6.395-14.282-14.282-14.282z" fill="#546e7a"/><path d="M52.644 43.186H38.362v-7.14h14.282zm0 14.283H38.362v-7.141h14.282zm0 14.282H38.362v-7.14h14.282zM88.35 43.186H74.068v-7.14H88.35zm0 14.283H74.068v-7.141H88.35zm0 14.282H74.068v-7.14H88.35z" fill="#cfd8dc"/><path d="M81.209 21.763c-6.172 0-12.305 1.653-17.853 4.79-5.548-3.137-11.681-4.79-17.853-4.79a36.304 36.304 0 0 0-21.424 6.98v58.184a3.568 3.568 0 0 0 3.57 3.57c.353 0 12.348-4.302 17.854-4.302 5.673 0 11.297 1.45 16.48 4.114l.058-.035.004-.007c.408.16.843.265 1.311.265.468 0 .903-.104 1.311-.265l.004.007.059.035c5.182-2.664 10.806-4.114 16.48-4.114 5.505 0 17.5 4.302 17.852 4.302a3.568 3.568 0 0 0 3.57-3.57V28.743a36.304 36.304 0 0 0-21.423-6.98zM31.22 81.43V32.65a28.998 28.998 0 0 1 14.283-3.725c5.056 0 9.93 1.277 14.282 3.725v48.78a43.206 43.206 0 0 0-14.282-2.399c-4.924 0-9.732.81-14.283 2.4zm64.272 0a43.206 43.206 0 0 0-14.283-2.4c-4.924 0-9.732.81-14.282 2.4V32.65a28.998 28.998 0 0 1 14.282-3.725 29 29 0 0 1 14.283 3.725z" fill="#b0bec5"/></svg>